# xmcd
# 
# Track frame offsets:
#     183
#     50608
#     141805
# 
# Disc length: 2617
# 
# Revision: 1
# Processed by: cddbd v1.5.2PL0 Copyright (c) Steve Scherf et al.
# Submitted via: BonkEnc v1.0.8
# 
DISCID=250a3703
DTITLE=Miles Davis - [1971.10.22] Neue Stadthalle, Switzerland 10/22/'71
DYEAR=1971
DGENRE=Contemporary Jazz
TTITLE0=Funky Tonk
TTITLE1=Yestermow
TTITLE2=Inamorata
EXTD=YEAR: 1971
EXTT0=
EXTT1=
EXTT2=
PLAYORDER=
